<svg xmlns="http://www.w3.org/2000/svg" width="22" height="22" viewBox="0 0 22 22">
  <g id="icon_recipe" transform="translate(-199 -500)">
    <rect id="사각형_457" data-name="사각형 457" width="22" height="22" transform="translate(199 500)" fill="none"/>
    <path id="패스_185" data-name="패스 185" d="M813.633,273.843a4.642,4.642,0,0,0-.695.046,5.667,5.667,0,0,0-10.983-.547c-.046.159-.08.319-.114.479a5.591,5.591,0,0,0-.125,1.333.194.194,0,0,0,.011.08,3.078,3.078,0,0,0,.034.456,1.006,1.006,0,0,0,.023.182,5.927,5.927,0,0,0,.718,1.982l.171.3,1.811-1.071-.182-.3a3.563,3.563,0,0,1,3.076-5.366,3.564,3.564,0,0,1,3.566,3.566v.353l.911,1.151.74-.33a2.49,2.49,0,0,1,1.037-.216,2.541,2.541,0,0,1,0,5.081l-1.048.011v2.5H802.274v-2.563l-1.378-.046a2.542,2.542,0,0,1-.262-5.07,6.917,6.917,0,0,1,.057-2.1,4.634,4.634,0,0,0-.513,9.206v6.186h14.5v-6.152a4.634,4.634,0,0,0-1.048-9.149Zm-1.048,13.2H802.274v-1.424h10.311Z" transform="translate(-597.27 231.603)" fill="#1d1d1b"/>
  </g>
</svg>
