<svg xmlns="http://www.w3.org/2000/svg" width="22" height="22" viewBox="0 0 22 22">
  <g id="icon_manual" transform="translate(-168 -500)">
    <rect id="사각형_456" data-name="사각형 456" width="22" height="22" transform="translate(168 500)" fill="none"/>
    <g id="그룹_376" data-name="그룹 376" transform="translate(168.317 502.137)">
      <g id="그룹_363" data-name="그룹 363" transform="translate(0)">
        <path id="패스_177" data-name="패스 177" d="M764.477,284.693H757V270.974h10.533V281.1h-1.375v-8.754h-7.783v10.969h6.1Z" transform="translate(-757.004 -270.974)" fill="#1d1d1b"/>
        <path id="패스_177_-_윤곽선" data-name="패스 177 - 윤곽선" d="M764.777,284.993H756.7V270.674h11.133V281.4h-1.975v-8.754h-7.183v10.369h6.1Zm-7.474-.6h6.874v-.775h-6.1V272.049h8.383V280.8h.775v-9.529H757.3Z" transform="translate(-757.004 -270.974)" fill="#1d1d1b"/>
      </g>
      <g id="그룹_364" data-name="그룹 364" transform="translate(9.158)">
        <path id="패스_178" data-name="패스 178" d="M766.461,281.1h-1.375V270.974h10.533v9.5h-1.375v-8.124h-7.783Z" transform="translate(-765.086 -270.974)" fill="#1d1d1b"/>
        <path id="패스_178_-_윤곽선" data-name="패스 178 - 윤곽선" d="M766.761,281.4h-1.975V270.674h11.133v10.1h-1.975v-8.124h-7.183Zm-1.375-.6h.775v-8.754h8.383v8.124h.775v-8.9h-9.933Z" transform="translate(-765.086 -270.974)" fill="#1d1d1b"/>
      </g>
      <g id="그룹_368" data-name="그룹 368" transform="translate(2.738 3.006)">
        <g id="그룹_365" data-name="그룹 365">
          <rect id="사각형_452" data-name="사각형 452" width="5.057" height="1.375" fill="#1d1d1b"/>
          <path id="사각형_452_-_윤곽선" data-name="사각형 452 - 윤곽선" d="M-.125-.125H5.182V1.5H-.125Zm5.057.25H.125V1.25H4.932Z" fill="#1d1d1b"/>
        </g>
        <g id="그룹_366" data-name="그룹 366" transform="translate(0 2.902)">
          <rect id="사각형_453" data-name="사각형 453" width="5.057" height="1.375" fill="#1d1d1b"/>
          <path id="사각형_453_-_윤곽선" data-name="사각형 453 - 윤곽선" d="M-.125-.125H5.182V1.5H-.125Zm5.057.25H.125V1.25H4.932Z" fill="#1d1d1b"/>
        </g>
        <g id="그룹_367" data-name="그룹 367" transform="translate(0 5.805)">
          <rect id="사각형_454" data-name="사각형 454" width="5.057" height="1.375" fill="#1d1d1b"/>
          <path id="사각형_454_-_윤곽선" data-name="사각형 454 - 윤곽선" d="M-.125-.125H5.182V1.5H-.125Zm5.057.25H.125V1.25H4.932Z" fill="#1d1d1b"/>
        </g>
      </g>
      <g id="그룹_373" data-name="그룹 373" transform="translate(8.956 5.076)">
        <g id="그룹_369" data-name="그룹 369">
          <path id="패스_179" data-name="패스 179" d="M773.366,290.116h-.913a4,4,0,0,1-2.664-1.022.966.966,0,0,1-.087-.076l-4.3-4.3a1.684,1.684,0,0,1,2.27-2.485l.757.631v-5.775a1.635,1.635,0,1,1,3.269,0v1.416a2.055,2.055,0,0,0,2.152.527,1.626,1.626,0,0,0,1.892.588,1.637,1.637,0,0,1,1.635,1.635v3.2c0,.022,0,.049,0,.062V286.1c0,.017,0,.058,0,.076a4.025,4.025,0,0,1-4.009,3.937Zm-2.716-2.1c.015.012.029.024.043.036a2.629,2.629,0,0,0,1.76.683h.913a2.584,2.584,0,0,0,1.216-.3,2.64,2.64,0,0,0,1.419-2.3c0-.015,0-.05,0-.065V284.52h0l0-.037v-3.228a.258.258,0,0,0-.517,0,.688.688,0,0,1-1.376-.012v-.571a.259.259,0,0,0-.518-.006.687.687,0,0,1-.687.677H772.9a.687.687,0,0,1-.681-.688v-.531a.26.26,0,1,0-.519,0,.688.688,0,1,1-1.376,0v-3.03a.26.26,0,0,0-.519,0v7.243a.687.687,0,0,1-1.127.528l-1.885-1.572a.309.309,0,0,0-.412.015.3.3,0,0,0-.094.22.306.306,0,0,0,.089.222Zm6.039-3.545h0Z" transform="translate(-764.908 -275.454)" fill="#1d1d1b"/>
          <path id="패스_179_-_윤곽선" data-name="패스 179 - 윤곽선" d="M773.366,290.241h-.913a4.129,4.129,0,0,1-2.744-1.051,1.068,1.068,0,0,1-.1-.083l-4.3-4.3a1.809,1.809,0,0,1,2.438-2.669l.552.46v-5.508a1.76,1.76,0,1,1,3.519,0v1.275c.045,0,.09-.005.135-.005a1.768,1.768,0,0,1,1.351.634,1.739,1.739,0,0,1,.541-.086,1.764,1.764,0,0,1,1.378.667,1.733,1.733,0,0,1,.514-.078,1.762,1.762,0,0,1,1.76,1.76v3.2c0,.023,0,.051,0,.066V286.1c0,.018,0,.059,0,.081a4.15,4.15,0,0,1-4.134,4.057Zm-6.773-8.274a1.56,1.56,0,0,0-1.1,2.663l4.3,4.3a.834.834,0,0,0,.076.066l.006,0a3.88,3.88,0,0,0,2.581.99h.913a3.9,3.9,0,0,0,3.884-3.813v-.006c0-.016,0-.053,0-.068V284.52c0-.012,0-.036,0-.055v-3.209a1.512,1.512,0,0,0-1.51-1.51,1.493,1.493,0,0,0-.517.093l-.09.033-.055-.078a1.514,1.514,0,0,0-1.231-.636,1.493,1.493,0,0,0-.539.1l-.088.034-.057-.076a1.5,1.5,0,0,0-1.448-.587l-.145.023v-1.563a1.51,1.51,0,1,0-3.019,0v6.042l-.962-.8A1.562,1.562,0,0,0,766.593,281.966Zm6.773,6.9h-.913a2.755,2.755,0,0,1-1.844-.715l-.024-.02-.024-.02-4.276-4.275a.435.435,0,0,1-.126-.314.425.425,0,0,1,.133-.307.433.433,0,0,1,.579-.021l1.885,1.572a.573.573,0,0,0,.6.078.565.565,0,0,0,.323-.51v-7.243a.385.385,0,0,1,.769,0v3.03a.563.563,0,1,0,1.126,0,.385.385,0,1,1,.769,0v.531a.564.564,0,0,0,.557.563h.006a.564.564,0,0,0,.562-.553.384.384,0,0,1,.768.008v.571a.564.564,0,0,0,.557.563h.021a.558.558,0,0,0,.548-.553.383.383,0,0,1,.767.007l0,3.259-.1.006h.1v1.563c0,.012,0,.042,0,.054a2.765,2.765,0,0,1-1.486,2.411A2.707,2.707,0,0,1,773.366,288.865Zm-2.632-.937.009.008.034.029a2.5,2.5,0,0,0,1.675.65h.913a2.459,2.459,0,0,0,1.158-.288,2.515,2.515,0,0,0,1.352-2.191c0-.014,0-.048,0-.068l0-1.592v-3.22a.133.133,0,0,0-.267,0,.809.809,0,0,1-.8.8h-.026a.814.814,0,0,1-.8-.813v-.571a.135.135,0,0,0-.135-.134.137.137,0,0,0-.133.132.815.815,0,0,1-.812.8H772.9a.815.815,0,0,1-.806-.813v-.531a.135.135,0,1,0-.269,0,.813.813,0,1,1-1.626,0v-3.03a.133.133,0,0,0-.134-.134.135.135,0,0,0-.135.134v7.243a.812.812,0,0,1-1.332.624l-1.884-1.572a.188.188,0,0,0-.246.009.178.178,0,0,0-.056.13.184.184,0,0,0,.053.134Z" transform="translate(-764.908 -275.454)" fill="#1d1d1b"/>
        </g>
        <g id="그룹_370" data-name="그룹 370" transform="translate(5.413 3.977)">
          <path id="선_125" data-name="선 125" d="M.125,1.806h-.25V0h.25Z" transform="translate(0.688 0.468)" fill="#1d1d1b"/>
          <path id="패스_180" data-name="패스 180" d="M770.373,281.706c-.38,0-.688-.21-.688-.468v-1.806c0-.258.308-.468.688-.468s.688.21.688.468v1.806C771.061,281.5,770.752,281.706,770.373,281.706Z" transform="translate(-769.685 -278.964)" fill="#1d1d1b"/>
          <path id="패스_180_-_윤곽선" data-name="패스 180 - 윤곽선" d="M770.373,281.831c-.456,0-.813-.26-.813-.593v-1.806c0-.333.357-.593.813-.593s.813.26.813.593v1.806C771.186,281.571,770.829,281.831,770.373,281.831Zm0-2.742c-.305,0-.563.157-.563.343v1.806c0,.186.258.343.563.343s.563-.157.563-.343v-1.806C770.936,279.246,770.678,279.089,770.373,279.089Z" transform="translate(-769.685 -278.964)" fill="#1d1d1b"/>
        </g>
        <g id="그룹_371" data-name="그룹 371" transform="translate(7.308 4.337)">
          <path id="선_126" data-name="선 126" d="M.125,1.447h-.25V0h.25Z" transform="translate(0.688 0.469)" fill="#1d1d1b"/>
          <path id="패스_181" data-name="패스 181" d="M772.045,281.664c-.38,0-.688-.21-.688-.468V279.75c0-.26.308-.469.688-.469s.688.21.688.469V281.2C772.733,281.454,772.424,281.664,772.045,281.664Z" transform="translate(-771.357 -279.281)" fill="#1d1d1b"/>
          <path id="패스_181_-_윤곽선" data-name="패스 181 - 윤곽선" d="M772.045,281.789c-.456,0-.813-.26-.813-.593V279.75c0-.333.357-.594.813-.594s.813.261.813.594V281.2C772.858,281.529,772.5,281.789,772.045,281.789Zm0-2.383c-.305,0-.563.158-.563.344V281.2c0,.186.258.343.563.343s.563-.157.563-.343V279.75C772.608,279.564,772.35,279.406,772.045,279.406Z" transform="translate(-771.357 -279.281)" fill="#1d1d1b"/>
        </g>
        <g id="그룹_372" data-name="그룹 372" transform="translate(9.2 4.74)">
          <path id="패스_182" data-name="패스 182" d="M773.633,280.05v0Z" transform="translate(-772.946 -279.582)" fill="#1d1d1b"/>
          <path id="패스_182_-_윤곽선" data-name="패스 182 - 윤곽선" d="M773.508,280.05h.25v1.305h-.25Z" transform="translate(-772.946 -279.582)" fill="#1d1d1b"/>
          <path id="패스_183" data-name="패스 183" d="M773.714,281.878c-.38,0-.687-.21-.687-.468v-1.305c0-.258.307-.468.687-.468s.688.21.688.468v1.305C774.4,281.669,774.094,281.878,773.714,281.878Z" transform="translate(-773.027 -279.637)" fill="#1d1d1b"/>
          <path id="패스_183_-_윤곽선" data-name="패스 183 - 윤곽선" d="M773.714,282c-.455,0-.812-.26-.812-.593v-1.305c0-.333.357-.593.812-.593s.813.26.813.593v1.305C774.527,281.743,774.169,282,773.714,282Zm0-2.241c-.3,0-.562.157-.562.343v1.305c0,.186.257.343.562.343s.563-.157.563-.343v-1.305C774.277,279.919,774.019,279.762,773.714,279.762Z" transform="translate(-773.027 -279.637)" fill="#1d1d1b"/>
        </g>
      </g>
    </g>
  </g>
</svg>
